#!OML:ASF F:\VICON\USERDATA\INSTALL\rory3\rory3.ASF
:FULLY-SPECIFIED
:DEGREES
328
root 0.901461 17.8179 43.7545 -4.61489 -2.90865 1.46236
lowerback 9.98371 0.127723 -1.64284
upperback 0.914938 0.015015 0.573348
thorax -4.64732 0.0441136 1.52062
lowerneck -16.1826 -2.80232 -3.15979
upperneck 21.5989 -3.60838 2.16604
head 9.60247 -1.69513 0.809224
rclavicle 1.17904e-014 6.75868e-015
rhumerus -31.0218 -16.1763 -81.4162
rradius 29.1126
rwrist 3.94161
rhand -16.3864 22.4786
rfingers 7.12502
rthumb 9.82736 -7.27206
lclavicle 1.17904e-014 6.75868e-015
lhumerus -26.965 1.81483 80.5378
lradius 23.1037
lwrist 5.84838
lhand -27.6262 21.2081
lfingers 7.12502
lthumb -1.02494 51.1854
rfemur -23.6836 -1.55916 20.499
rtibia 69.724
rfoot -7.16984 -8.48025
rtoes 9.90519
lfemur -3.61002 0.512979 -25.6385
ltibia 27.6649
lfoot -15.4519 -1.83684
ltoes 0.548726
329
root 0.904568 17.8044 43.916 -4.5311 -2.86264 1.51965
lowerback 10.7179 0.0753438 -1.74184
upperback 0.553032 -0.0794436 0.579346
thorax -5.43372 0.0105472 1.60035
lowerneck -16.2881 -2.72814 -3.1952
upperneck 21.7911 -3.53108 2.30366
head 9.69094 -1.64534 0.871705
rclavicle -1.35236e-014 -1.19271e-014
rhumerus -31.2123 -16.9578 -80.9326
rradius 27.7541
rwrist 4.96908
rhand -16.4834 23.7048
rfingers 7.12502
rthumb 9.73377 -6.05023
lclavicle -1.35236e-014 -1.19271e-014
lhumerus -26.8654 0.79865 80.7607
lradius 23.5791
lwrist 8.29071
lhand -28.4143 20.9336
lfingers 7.12502
lthumb -1.78608 50.9058
rfemur -24.6721 -1.55607 20.5277
rtibia 68.4603
rfoot -8.03631 -8.35953
rtoes 9.36914
lfemur -3.21614 0.475991 -25.7462
ltibia 28.0205
lfoot -15.3223 -1.91066
ltoes 4.16184
330
root 0.909335 17.8018 44.119 -4.60782 -2.57598 1.99693
lowerback 11.0705 -0.0272223 -2.21561
upperback 0.00357536 -0.291908 0.478349
thorax -6.20136 -0.0682051 1.79995
lowerneck -15.2708 -2.8478 -3.58176
upperneck 21.9768 -3.70497 2.57492
head 9.58501 -1.73756 1.01902
rclavicle 3.21472e-016 5.56597e-015
rhumerus -32.5015 -16.9356 -80.4535
rradius 27.4785
rwrist 4.94647
rhand -16.2986 23.1696
rfingers 7.12502
rthumb 9.91204 -6.57701
lclavicle 3.21472e-016 5.56597e-015
lhumerus -27.801 -0.0961126 80.997
lradius 24.2474
lwrist 8.76752
lhand -29.7532 18.7843
lfingers 7.12502
lthumb -3.07912 48.7418
rfemur -25.1292 -1.99904 19.9422
rtibia 67.014
rfoot -9.1292 -8.04834
rtoes 8.16922
lfemur -2.16599 0.555637 -26.332
ltibia 27.6747
lfoot -15.9619 -2.13497
ltoes 5.77987
331
root 0.903981 17.7958 44.2925 -4.47545 -2.42671 2.32811
lowerback 9.98236 -0.122393 -2.67626
upperback 0.816537 -0.441136 0.40857
thorax -4.72556 -0.160327 1.99497
lowerneck -15.8411 -2.48961 -3.09729
upperneck 21.2355 -3.22457 2.30701
head 9.4011 -1.49953 0.901686
rclavicle 1.50704e-014 1.11319e-014
rhumerus -31.2933 -17.1595 -80.94
rradius 27.4803
rwrist 4.69997
rhand -15.895 21.9357
rfingers 7.12502
rthumb 10.3014 -7.79203
lclavicle 1.50704e-014 1.11319e-014
lhumerus -26.0561 0.53545 80.6328
lradius 24.5183
lwrist 6.63059
lhand -30.5051 15.6615
lfingers 7.12502
lthumb -3.80523 45.6072
rfemur -26.0111 -2.09303 19.6417
rtibia 65.4596
rfoot -9.85613 -7.99058
rtoes 7.95151
lfemur -1.59755 0.622528 -26.7089
ltibia 27.4046
lfoot -16.3116 -2.23696
ltoes 7.37693
332
root 0.899097 17.7838 44.4422 -4.24745 -2.358 2.45228
lowerback 10.4687 -0.218303 -3.00198
upperback 0.553317 -0.621777 0.456421
thorax -5.26033 -0.229841 2.26187
lowerneck -16.8637 -2.95903 -3.60783
upperneck 22.3726 -3.78195 2.47723
head 10.0265 -1.77009 0.959965
rclavicle -7.60351e-015 -5.1684e-015
rhumerus -31.5234 -17.1956 -80.7588
rradius 26.943
rwrist 5.17737
rhand -16.0857 22.5559
rfingers 7.12502
rthumb 10.1174 -7.18083
lclavicle -7.60351e-015 -5.1684e-015
lhumerus -25.8187 1.01813 80.2343
lradius 25.0048
lwrist 6.10369
lhand -28.3874 18.8111
lfingers 7.12502
lthumb -1.76006 48.7836
rfemur -27.0529 -1.93437 19.6443
rtibia 63.7288
rfoot -10.3517 -8.27838
rtoes 7.67539
lfemur -1.22113 0.565948 -26.8747
ltibia 27.1171
lfoot -16.388 -2.11231
ltoes 7.71585
333
root 0.911139 17.769 44.5972 -4.15912 -1.9918 3.01621
lowerback 10.8698 -0.350966 -3.43786
upperback 0.387779 -0.876036 0.310716
thorax -5.64036 -0.336443 2.40058
lowerneck -16.5278 -2.74213 -3.52865
upperneck 21.779 -3.51108 2.53854
head 9.74224 -1.63513 1.00892
rclavicle -1.10325e-014 -7.15625e-015
rhumerus -31.9504 -17.306 -80.5044
rradius 26.9394
rwrist 5.57456
rhand -16.234 23.2915
rfingers 7.12502
rthumb 9.97436 -6.45221
lclavicle -1.10325e-014 -7.15625e-015
lhumerus -25.4704 0.542904 80.2402
lradius 25.5323
lwrist 7.01511
lhand -28.344 19.6651
lfingers 7.12502
lthumb -1.71819 49.638
rfemur -27.734 -2.41128 18.9954
rtibia 61.8548
rfoot -11.0878 -8.36061
rtoes 5.88813
lfemur -0.529982 0.455299 -27.6412
ltibia 26.6369
lfoot -16.5843 -1.64406
ltoes 5.00162
334
root 0.884775 17.7658 44.7738 -4.14306 -2.40194 2.37614
lowerback 11.1841 -0.243304 -3.18554
upperback 0.201791 -0.698809 0.582818
thorax -6.02464 -0.242494 2.52327
lowerneck -15.8019 -2.48871 -3.15878
upperneck 21.2397 -3.17879 2.17737
head 9.39287 -1.49861 0.873376
rclavicle -8.58501e-015 -1.07344e-014
rhumerus -32.661 -17.3892 -80.3136
rradius 27.174
rwrist 5.62072
rhand -16.2719 22.9089
rfingers 7.12502
rthumb 9.93786 -6.83653
lclavicle -8.58501e-015 -1.07344e-014
lhumerus -25.4186 -0.161708 80.2809
lradius 26.1574
lwrist 7.63451
lhand -28.583 19.7155
lfingers 7.12502
lthumb -1.94899 49.6863
rfemur -28.1787 -1.66008 20.0122
rtibia 59.5779
rfoot -11.584 -9.19066
rtoes 3.99627
lfemur 0.104121 0.852535 -26.8975
ltibia 26.3729
lfoot -17.0572 -0.797697
ltoes 1.14624
335
root 0.88752 17.7746 44.9969 -4.34929 -2.07692 2.3905
lowerback 9.86248 -0.442855 -3.11278
upperback 1.12217 -0.899612 0.569559
thorax -4.3049 -0.388338 2.46693
lowerneck -16.4151 -2.71502 -3.44954
upperneck 20.5892 -3.45249 2.48054
head 9.29924 -1.61035 0.984486
rclavicle 1.56543e-015 1.98785e-015
rhumerus -31.6791 -17.7393 -80.5874
rradius 27.0225
rwrist 5.73978
rhand -16.2481 22.2852
rfingers 7.12502
rthumb 9.96084 -7.45917
lclavicle 1.56543e-015 1.98785e-015
lhumerus -23.9715 -0.430878 80.2406
lradius 26.5937
lwrist 8.20576
lhand -29.0224 18.649
lfingers 7.12502
lthumb -2.37334 48.6156
rfemur -27.8751 -2.08398 19.9138
rtibia 57.1126
rfoot -12.1877 -9.41284
rtoes 3.83789
lfemur 1.45008 0.794066 -27.0173
ltibia 25.8649
lfoot -17.5012 -0.593785
ltoes 0.963416
336
root 0.879312 17.7818 45.1281 -3.95079 -1.9889 1.88234
lowerback 10.9596 -0.562847 -2.76687
upperback 0.305919 -1.05033 0.776157
thorax -5.76814 -0.430465 2.54026
lowerneck -16.0624 -2.84894 -3.72864
upperneck 20.9143 -3.62719 2.64487
head 9.36218 -1.69917 1.06842
rclavicle 2.06239e-014 6.75868e-015
rhumerus -33.0064 -17.3915 -80.2079
rradius 27.1353
rwrist 5.85021
rhand -16.4446 22.2508
rfingers 7.12502
rthumb 9.77118 -7.50255
lclavicle 2.06239e-014 6.75868e-015
lhumerus -24.7573 -1.02302 80.2566
lradius 27.3649
lwrist 9.11433
lhand -29.503 17.1947
lfingers 7.12502
lthumb -2.83747 47.1556
rfemur -28.6428 -1.76495 20.6091
rtibia 54.4534
rfoot -11.6807 -10.2814
rtoes 3.02437
lfemur 1.73121 0.361519 -26.4751
ltibia 25.2562
lfoot -17.083 -0.874047
ltoes 4.14147
337
root 0.881057 17.7811 45.2783 -3.58626 -1.68866 2.06296
lowerback 10.761 -0.678219 -2.94104
upperback 0.318894 -1.22096 0.75222
thorax -5.62908 -0.512848 2.63513
lowerneck -16.0229 -2.69647 -3.54391
upperneck 20.5882 -3.42259 2.50561
head 9.22792 -1.60512 1.01672
rclavicle 2.56929e-014 -8.34896e-015
rhumerus -33.0088 -17.8416 -79.9982
rradius 26.9334
rwrist 6.11552
rhand -16.5601 22.9659
rfingers 7.12502
rthumb 9.65978 -6.79257
lclavicle 2.56929e-014 -8.34896e-015
lhumerus -24.1201 -1.35323 80.279
lradius 27.8448
lwrist 9.64381
lhand -29.8311 17.1562
lfingers 7.12502
lthumb -3.15433 47.1126
rfemur -29.2687 -1.92208 20.4216
rtibia 51.7854
rfoot -11.3711 -10.8158
rtoes 2.04908
lfemur 2.37442 0.0920921 -26.708
ltibia 24.2276
lfoot -16.6813 -1.22342
ltoes 6.63814
338
root 0.891107 17.7857 45.4588 -3.4553 -1.17007 2.73537
lowerback 10.4028 -0.819282 -3.33174
upperback 0.368079 -1.45755 0.505371
thorax -5.35757 -0.628601 2.62216
lowerneck -15.847 -2.86878 -3.89771
upperneck 20.4308 -3.66161 2.88433
head 9.16388 -1.70454 1.17657
rclavicle 2.28975e-014 5.56597e-015
rhumerus -33.2748 -18.0348 -79.8993
rradius 26.7815
rwrist 5.55051
rhand -16.7142 23.978
rfingers 7.12502
rthumb 9.5111 -5.78737
lclavicle 2.28975e-014 5.56597e-015
lhumerus -23.5606 -2.13979 80.32
lradius 28.0353
lwrist 10.1129
lhand -29.763 16.9114
lfingers 7.12502
lthumb -3.08856 46.8688
rfemur -29.4026 -2.47862 19.5398
rtibia 49.0089
rfoot -11.2805 -11.0836
rtoes 2.43113
lfemur 3.41485 0.0792567 -27.4767
ltibia 23.3088
lfoot -16.7385 -1.59507
ltoes 7.31573
339
root 0.866854 17.7953 45.6523 -3.17699 -1.29988 3.04319
lowerback 10.0145 -0.845353 -4.0632
upperback 0.82466 -1.55165 0.524761
thorax -4.63474 -0.681956 3.05045
lowerneck -17.6423 -2.58686 -3.31423
upperneck 20.8381 -3.25511 2.3976
head 9.60227 -1.50564 0.947127
rclavicle 7.35503e-015 3.57812e-015
rhumerus -32.3965 -18.0978 -80.2508
rradius 26.7867
rwrist 5.83028
rhand -16.5183 24.3557
rfingers 7.12502
rthumb 9.70011 -5.40095
lclavicle 7.35503e-015 3.57812e-015
lhumerus -21.882 -3.11587 80.2079
lradius 27.8792
lwrist 11.3885
lhand -30.594 15.8323
lfingers 7.12502
lthumb -3.89109 45.7765
rfemur -29.7446 -1.75605 19.2246
rtibia 46.0612
rfoot -10.7939 -11.9812
rtoes 3.02313
lfemur 4.41595 0.215195 -27.7284
ltibia 22.0998
lfoot -16.6383 -1.63646
ltoes 7.41285
340
root 0.848231 17.8002 45.8347 -3.01316 -1.47631 2.7359
lowerback 10.0368 -0.842586 -3.9687
upperback 0.486616 -1.53989 0.625506
thorax -5.0026 -0.66265 3.10751
lowerneck -17.0588 -2.77471 -3.45219
upperneck 20.9644 -3.54718 2.57824
head 9.5544 -1.63736 0.999208
rclavicle 1.15171e-014 -1.19271e-014
rhumerus -33.377 -18.178 -79.9092
rradius 27.1857
rwrist 6.74933
rhand -15.8495 22.9665
rfingers 7.12502
rthumb 10.3453 -6.75898
lclavicle 1.15171e-014 -1.19271e-014
lhumerus -22.0408 -3.79634 80.1136
lradius 28.2302
lwrist 11.8046
lhand -31.5697 15.623
lfingers 7.12502
lthumb -4.83327 45.5478
rfemur -29.832 -0.947811 19.5477
rtibia 42.9849
rfoot -10.2099 -12.9163
rtoes 3.01896
lfemur 5.61923 0.177224 -27.3709
ltibia 20.6546
lfoot -16.1524 -1.65446
ltoes 8.31658
341
root 0.836689 17.8083 46.0303 -2.92439 -1.35597 2.46451
lowerback 10.0522 -0.944018 -3.7897
upperback 0.278442 -1.65263 0.73923
thorax -5.22237 -0.712543 3.14556
lowerneck -16.5969 -2.9179 -3.87801
upperneck 20.8189 -3.73623 2.95986
head 9.44117 -1.72131 1.18167
rclavicle 2.92835e-014 -1.27222e-014
rhumerus -34.0136 -18.3403 -79.5414
rradius 27.3546
rwrist 7.59115
rhand -14.8847 21.0568
rfingers 7.12502
rthumb 11.2759 -8.62012
lclavicle 2.92835e-014 -1.27222e-014
lhumerus -22.1293 -3.73457 80.0326
lradius 28.6583
lwrist 11.4794
lhand -31.8033 15.7648
lfingers 7.12502
lthumb -5.05885 45.6844
rfemur -29.5456 -0.594639 19.7704
rtibia 39.7594
rfoot -9.79966 -13.7165
rtoes 3.02749
lfemur 6.86508 0.399728 -27.015
ltibia 19.4024
lfoot -15.8667 -1.63826
ltoes 6.63468
342
root 0.830149 17.8057 46.2275 -2.74518 -1.0923 2.86609
lowerback 9.71373 -1.02017 -4.21641
upperback 0.269495 -1.79219 0.664718
thorax -5.0203 -0.777053 3.31711
lowerneck -16.3824 -2.68664 -3.42444
upperneck 20.6087 -3.40801 2.41676
head 9.29687 -1.59571 0.964388
rclavicle 5.08143e-015 1.59028e-015
rhumerus -34.2691 -18.5131 -79.3184
rradius 27.1501
rwrist 7.43003
rhand -14.9411 21.6116
rfingers 7.12502
rthumb 11.2216 -8.06829
lclavicle 5.08143e-015 1.59028e-015
lhumerus -21.8451 -4.02402 80.0379
lradius 29.065
lwrist 11.4169
lhand -32.4836 15.8289
lfingers 7.12502
lthumb -5.71565 45.7318
rfemur -29.3671 -0.445236 19.1799
rtibia 36.5194
rfoot -9.36639 -14.3396
rtoes 1.82292
lfemur 7.99914 0.598371 -27.4019
ltibia 18.2321
lfoot -15.8172 -1.58881
ltoes 3.88918
